HIERARCHY
ROOT Hips
{
  OFFSET 0.849866 78.6569 -0.536788
  CHANNELS 6 Xposition Yposition Zposition Zrotation Xrotation Yrotation
  JOINT Bip01_Pelvis
  {
    OFFSET 0 0 0
    CHANNELS 6 Xposition Yposition Zposition Zrotation Xrotation Yrotation
    JOINT BN_Tail_01
    {
      OFFSET -5.52397 -0.332285 0
      CHANNELS 6 Xposition Yposition Zposition Zrotation Xrotation Yrotation
      JOINT BN_Tail_02
      {
        OFFSET 6.48885 -2.032e-005 0
        CHANNELS 6 Xposition Yposition Zposition Zrotation Xrotation Yrotation
        JOINT BN_Tail_03
        {
          OFFSET 7.08759 1.016e-005 -0.00261112
          CHANNELS 6 Xposition Yposition Zposition Zrotation Xrotation Yrotation
          End Site
          {
            OFFSET 0 0 0
          }
        }
      }
    }
    JOINT Bip01_Spine
    {
      OFFSET 4.02227 0.398968 0
      CHANNELS 6 Xposition Yposition Zposition Zrotation Xrotation Yrotation
      JOINT BN_UpperArm_R_01
      {
        OFFSET 4.84413 -3.22857 -3.65581
        CHANNELS 6 Xposition Yposition Zposition Zrotation Xrotation Yrotation
        JOINT BN_Forearm_R_01
        {
          OFFSET 8.51614 0 0
          CHANNELS 6 Xposition Yposition Zposition Zrotation Xrotation Yrotation
          JOINT BN_hand_R_01
          {
            OFFSET 10.1924 0 0
            CHANNELS 6 Xposition Yposition Zposition Zrotation Xrotation Yrotation
            JOINT BN_Finger_R_02
            {
              OFFSET 14.5949 -1.43855 0.585079
              CHANNELS 6 Xposition Yposition Zposition Zrotation Xrotation Yrotation
              End Site
              {
                OFFSET 0 0 0
              }
            }
            JOINT BN_Finger_R_01
            {
              OFFSET 14.4623 0 0
              CHANNELS 6 Xposition Yposition Zposition Zrotation Xrotation Yrotation
              End Site
              {
                OFFSET 0 0 0
              }
            }
          }
        }
      }
      JOINT BN_UpperArm_L_01
      {
        OFFSET 4.84412 -3.22858 3.65557
        CHANNELS 6 Xposition Yposition Zposition Zrotation Xrotation Yrotation
        JOINT BN_Forearm_L_01
        {
          OFFSET 8.51611 0 0
          CHANNELS 6 Xposition Yposition Zposition Zrotation Xrotation Yrotation
          JOINT BN_hand_L_01
          {
            OFFSET 10.1924 0 0
            CHANNELS 6 Xposition Yposition Zposition Zrotation Xrotation Yrotation
            JOINT BN_Finger_L_01
            {
              OFFSET 14.4623 0 0
              CHANNELS 6 Xposition Yposition Zposition Zrotation Xrotation Yrotation
              End Site
              {
                OFFSET 0 0 0
              }
            }
            JOINT BN_Finger_L_02
            {
              OFFSET 14.5949 1.43855 0.585071
              CHANNELS 6 Xposition Yposition Zposition Zrotation Xrotation Yrotation
              End Site
              {
                OFFSET 0 0 0
              }
            }
          }
        }
      }
      JOINT Bip01_R_Thigh
      {
        OFFSET -4.03411 -0.254132 -3.45377
        CHANNELS 6 Xposition Yposition Zposition Zrotation Xrotation Yrotation
        JOINT Bip01_R_Calf
        {
          OFFSET 3.92618 0 0
          CHANNELS 6 Xposition Yposition Zposition Zrotation Xrotation Yrotation
          JOINT Bip01_R_HorseLink
          {
            OFFSET 6.12319 0 0
            CHANNELS 6 Xposition Yposition Zposition Zrotation Xrotation Yrotation
            JOINT Bip01_R_Foot
            {
              OFFSET 9.94776 0 0
              CHANNELS 6 Xposition Yposition Zposition Zrotation Xrotation Yrotation
              JOINT Bip01_R_Toe3
              {
                OFFSET 0.881252 -0.110953 0.0158496
                CHANNELS 6 Xposition Yposition Zposition Zrotation Xrotation Yrotation
                JOINT Bip01_R_Toe31
                {
                  OFFSET 2.32137 0 0
                  CHANNELS 6 Xposition Yposition Zposition Zrotation Xrotation Yrotation
                  JOINT Bip01_R_Toe32
                  {
                    OFFSET 1.63293 0 0
                    CHANNELS 6 Xposition Yposition Zposition Zrotation Xrotation Yrotation
                    JOINT Bip01_R_Toe3Nub
                    {
                      OFFSET 1.72131 0 0
                      CHANNELS 6 Xposition Yposition Zposition Zrotation Xrotation Yrotation
                      End Site
                      {
                        OFFSET 0 0 0
                      }
                    }
                  }
                }
              }
              JOINT Bip01_R_Toe2
              {
                OFFSET 0.994751 0.967285 -1.09428
                CHANNELS 6 Xposition Yposition Zposition Zrotation Xrotation Yrotation
                JOINT Bip01_R_Toe21
                {
                  OFFSET 2.20201 0 0
                  CHANNELS 6 Xposition Yposition Zposition Zrotation Xrotation Yrotation
                  JOINT Bip01_R_Toe22
                  {
                    OFFSET 1.84925 0 0
                    CHANNELS 6 Xposition Yposition Zposition Zrotation Xrotation Yrotation
                    JOINT Bip01_R_Toe2Nub
                    {
                      OFFSET 1.70976 0 0
                      CHANNELS 6 Xposition Yposition Zposition Zrotation Xrotation Yrotation
                      End Site
                      {
                        OFFSET 0 0 0
                      }
                    }
                  }
                }
              }
              JOINT Bip01_R_Toe1
              {
                OFFSET 1.3748 1.34027 -0.0712419
                CHANNELS 6 Xposition Yposition Zposition Zrotation Xrotation Yrotation
                JOINT Bip01_R_Toe11
                {
                  OFFSET 2.26122 0 0
                  CHANNELS 6 Xposition Yposition Zposition Zrotation Xrotation Yrotation
                  JOINT Bip01_R_Toe12
                  {
                    OFFSET 2.22215 0 0
                    CHANNELS 6 Xposition Yposition Zposition Zrotation Xrotation Yrotation
                    JOINT Bip01_R_Toe1Nub
                    {
                      OFFSET 1.61867 0 0
                      CHANNELS 6 Xposition Yposition Zposition Zrotation Xrotation Yrotation
                      End Site
                      {
                        OFFSET 0 0 0
                      }
                    }
                  }
                }
              }
              JOINT Bip01_R_Toe0
              {
                OFFSET 1.40695 0.687986 0.883783
                CHANNELS 6 Xposition Yposition Zposition Zrotation Xrotation Yrotation
                JOINT Bip01_R_Toe01
                {
                  OFFSET 2.26828 0 0
                  CHANNELS 6 Xposition Yposition Zposition Zrotation Xrotation Yrotation
                  JOINT Bip01_R_Toe02
                  {
                    OFFSET 2.09769 0 0
                    CHANNELS 6 Xposition Yposition Zposition Zrotation Xrotation Yrotation
                    JOINT Bip01_R_Toe0Nub
                    {
                      OFFSET 1.53753 0 0
                      CHANNELS 6 Xposition Yposition Zposition Zrotation Xrotation Yrotation
                      End Site
                      {
                        OFFSET 0 0 0
                      }
                    }
                  }
                }
              }
            }
          }
        }
      }
      JOINT Bip01_L_Thigh
      {
        OFFSET -4.03411 -0.254147 3.45377
        CHANNELS 6 Xposition Yposition Zposition Zrotation Xrotation Yrotation
        JOINT Bip01_L_Calf
        {
          OFFSET 3.92616 0 0
          CHANNELS 6 Xposition Yposition Zposition Zrotation Xrotation Yrotation
          JOINT Bip01_L_HorseLink
          {
            OFFSET 6.1232 0 0
            CHANNELS 6 Xposition Yposition Zposition Zrotation Xrotation Yrotation
            JOINT Bip01_L_Foot
            {
              OFFSET 9.94775 0 0
              CHANNELS 6 Xposition Yposition Zposition Zrotation Xrotation Yrotation
              JOINT Bip01_L_Toe3
              {
                OFFSET 0.881246 -0.110986 -0.0157582
                CHANNELS 6 Xposition Yposition Zposition Zrotation Xrotation Yrotation
                JOINT Bip01_L_Toe31
                {
                  OFFSET 2.32136 0 0
                  CHANNELS 6 Xposition Yposition Zposition Zrotation Xrotation Yrotation
                  JOINT Bip01_L_Toe32
                  {
                    OFFSET 1.63293 0 0
                    CHANNELS 6 Xposition Yposition Zposition Zrotation Xrotation Yrotation
                    JOINT Bip01_L_Toe3Nub
                    {
                      OFFSET 1.7213 0 0
                      CHANNELS 6 Xposition Yposition Zposition Zrotation Xrotation Yrotation
                      End Site
                      {
                        OFFSET 0 0 0
                      }
                    }
                  }
                }
              }
              JOINT Bip01_L_Toe2
              {
                OFFSET 0.994649 0.967162 1.09447
                CHANNELS 6 Xposition Yposition Zposition Zrotation Xrotation Yrotation
                JOINT Bip01_L_Toe21
                {
                  OFFSET 2.202 0 0
                  CHANNELS 6 Xposition Yposition Zposition Zrotation Xrotation Yrotation
                  JOINT Bip01_L_Toe22
                  {
                    OFFSET 1.84926 0 0
                    CHANNELS 6 Xposition Yposition Zposition Zrotation Xrotation Yrotation
                    JOINT Bip01_L_Toe2Nub
                    {
                      OFFSET 1.70976 0 0
                      CHANNELS 6 Xposition Yposition Zposition Zrotation Xrotation Yrotation
                      End Site
                      {
                        OFFSET 0 0 0
                      }
                    }
                  }
                }
              }
              JOINT Bip01_L_Toe1
              {
                OFFSET 1.37483 1.34021 0.0715086
                CHANNELS 6 Xposition Yposition Zposition Zrotation Xrotation Yrotation
                JOINT Bip01_L_Toe11
                {
                  OFFSET 2.26124 0 0
                  CHANNELS 6 Xposition Yposition Zposition Zrotation Xrotation Yrotation
                  JOINT Bip01_L_Toe12
                  {
                    OFFSET 2.22214 0 0
                    CHANNELS 6 Xposition Yposition Zposition Zrotation Xrotation Yrotation
                    JOINT Bip01_L_Toe1Nub
                    {
                      OFFSET 1.61867 0 0
                      CHANNELS 6 Xposition Yposition Zposition Zrotation Xrotation Yrotation
                      End Site
                      {
                        OFFSET 0 0 0
                      }
                    }
                  }
                }
              }
              JOINT Bip01_L_Toe0
              {
                OFFSET 1.40707 0.688009 -0.883564
                CHANNELS 6 Xposition Yposition Zposition Zrotation Xrotation Yrotation
                JOINT Bip01_L_Toe01
                {
                  OFFSET 2.26828 0 0
                  CHANNELS 6 Xposition Yposition Zposition Zrotation Xrotation Yrotation
                  JOINT Bip01_L_Toe02
                  {
                    OFFSET 2.0977 0 0
                    CHANNELS 6 Xposition Yposition Zposition Zrotation Xrotation Yrotation
                    JOINT Bip01_L_Toe0Nub
                    {
                      OFFSET 1.53752 0 0
                      CHANNELS 6 Xposition Yposition Zposition Zrotation Xrotation Yrotation
                      End Site
                      {
                        OFFSET 0 0 0
                      }
                    }
                  }
                }
              }
            }
          }
        }
      }
      JOINT Bip01_Spine1
      {
        OFFSET 4.90674 -0.00437896 0
        CHANNELS 6 Xposition Yposition Zposition Zrotation Xrotation Yrotation
        JOINT Bip01_Neck
        {
          OFFSET 5.56447 -1.28357 0
          CHANNELS 6 Xposition Yposition Zposition Zrotation Xrotation Yrotation
          JOINT Bip01_Neck1
          {
            OFFSET 2.79308 -0.00219964 0
            CHANNELS 6 Xposition Yposition Zposition Zrotation Xrotation Yrotation
            JOINT Bip01_Head
            {
              OFFSET 2.79272 0 0
              CHANNELS 6 Xposition Yposition Zposition Zrotation Xrotation Yrotation
              JOINT BN_Mouth_01
              {
                OFFSET 4.19089 0.0665938 0
                CHANNELS 6 Xposition Yposition Zposition Zrotation Xrotation Yrotation
                End Site
                {
                  OFFSET 0 0 0
                }
              }
              JOINT Bip01_HeadNub
              {
                OFFSET 6.95118 0 0
                CHANNELS 6 Xposition Yposition Zposition Zrotation Xrotation Yrotation
                End Site
                {
                  OFFSET 0 0 0
                }
              }
            }
          }
        }
      }
    }
  }
}
MOTION
Frames:	3
Frame Time:	0.0333333
0.849866 91.44 0 -175.247 -90 -90 0 0 0 -89.9989 6.1813 -89.9989 -5.52397 -0.332268 0 -35.3922 0.0109406 179.965 6.48887 0 -0.00426466 13.1432 4.50914e-010 -1.05639e-009 7.08757 -7.10543e-015 -0.00419608 21.0985 0.029188 0.023023 4.02121 0.398934 -7.87401e-005 -4.85098 0.598181 3.40366 4.84412 -3.22852 -3.65581 -81.6726 -8.74456 35.7459 8.51613 0 -3.8147e-006 36.3246 -0.00153571 -20.2371 10.1924 0 -1.90735e-006 -30.909 0.675282 -22.3418 14.5949 -1.43856 0.585094 -48.2962 -1.49342 21.2378 14.4623 3.81471e-006 -3.55271e-015 -2.99638 -0.00273978 19.865 4.84412 -3.22856 3.65557 98.3219 -8.74392 -144.252 8.51613 0 0 -36.3246 0.00153872 -20.2371 10.1924 0 -5.72204e-006 30.909 -0.675282 -22.3419 14.4623 -3.55272e-015 0 2.99637 0.00273654 19.865 14.5949 1.43853 0.585073 48.2962 1.49341 21.2378 -3.76132 -0.77372 -3.67578 -91.1821 -2.57655 173.566 3.92615 0 0 -75.4755 2.34076e-006 9.49627e-006 6.12318 0 0 99.2198 -2.62964e-006 -9.63361e-006 9.94775 0 9.53675e-007 -51.9021 4.71009 6.04958 0.881242 -0.110958 0.0158091 153.243 -4.55437 179.841 2.32138 -1.14442e-005 0 81.3801 2.41399e-006 -1.55014e-006 1.63292 1.42111e-014 0 -87.5397 -9.46215e-006 8.7652e-006 1.72128 -7.1056e-015 8.88178e-016 -1.1694e-007 1.07635e-005 -3.15004e-007 0.994697 0.967281 -1.09433 100.73 3.63897 27.2618 2.202 7.6295e-006 2.38418e-007 55.5995 -1.49642e-006 2.28352e-006 1.84925 -7.10557e-015 -1.19209e-007 -35.3034 -1.52253e-005 -9.99488e-006 1.70976 7.62957e-006 3.57628e-007 1.24937e-006 9.84246e-007 5.30242e-007 1.37481 1.34026 -0.0713082 112.106 -1.01429 -2.49568 2.26122 1.5259e-005 2.38419e-007 31.1828 1.0122e-005 -4.49292e-006 2.22214 7.62951e-006 -2.38419e-007 -38.5073 -7.54688e-006 7.18279e-006 1.61866 7.62954e-006 0 -1.21172e-007 -2.78526e-008 6.95319e-007 1.40697 0.687974 0.883714 102.531 -7.69388 -31.052 2.26827 1.42111e-014 9.53674e-007 26.1292 -9.86763e-006 8.938e-006 2.0977 -7.10554e-015 -9.53674e-007 -61.0221 -1.51646e-005 9.46246e-006 1.53752 0 -9.53674e-007 4.53335e-007 1.005e-005 1.08527e-006 -4.17168 -0.701439 3.21918 -97.4544 7.91274 -174.15 3.92615 -3.8147e-006 -9.53674e-007 -76.5764 2.22809e-006 9.41309e-006 6.1232 -1.52588e-005 -9.53674e-007 132.918 -5.90224e-006 -7.34081e-006 9.94776 2.28883e-005 1.77636e-015 -17.9055 -7.51281 3.63756 0.881246 -0.11097 -0.0158137 109.14 3.23719 -176.683 2.32138 8.88187e-016 4.76837e-007 44.4425 1.14723e-005 1.25292e-006 1.63293 -3.81475e-006 -4.76837e-007 -43.5259 9.67349e-007 1.407e-006 1.7213 4.76846e-007 4.44089e-016 179.96 -0.000139453 0.000236085 0.994718 0.96726 1.09433 72.5544 10.6313 -25.4916 2.20201 3.81473e-006 0 63.0462 1.593e-006 3.32591e-006 1.84923 -1.90738e-006 0 -35.3034 -5.3357e-006 6.18574e-006 1.70977 3.55278e-015 -7.10542e-015 -179.96 -1.14815e-005 0.000180534 1.3748 1.34026 0.0713055 77.648 -0.578102 2.62899 2.26122 -7.1055e-015 0 49.2911 2.77985e-006 -2.34237e-006 2.22213 0 4.76837e-007 -38.5073 -1.39759e-005 -1.07255e-005 1.61868 3.81477e-006 4.76837e-007 -179.96 -1.36506e-005 0.000181015 1.407 0.687977 -0.883719 83.9474 -3.75322 31.6978 2.26829 7.1055e-015 3.81469e-006 49.9345 3.77961e-006 -4.5743e-006 2.09771 1.90738e-006 7.62939e-006 -61.0221 -1.72217e-005 -7.74651e-006 1.53752 7.62957e-006 -3.81469e-006 -179.96 -2.94372e-005 0.000182478 4.9071 -0.00428009 -0.000375748 9.04795 4.95588 -2.0849 5.56426 -1.28356 0.000253677 -1.92277 -6.57525 8.33693 2.79365 -0.00202942 0.000147581 24.6191 -3.8675 -9.68557 2.79272 1.52588e-005 0 28.0902 -1.35029 0.453163 4.19087 0.0665818 0 -126.987 -0.0273285 -179.986 6.95116 1.52588e-005 0 9.69497e-007 9.96127e-006 -4.30302e-009 
0.808035 91.5681 0.00682595 104.108 -90 149.736 0 0 0 -90.0061 6.18126 -89.9984 -5.52397 -0.332268 2.74086e-016 -45.3071 -0.0136566 -179.968 6.48887 2.06058e-013 -0.00426466 -2.00064 3.34267e-010 -1.77907e-009 7.08757 2.62901e-013 -0.00419608 -5.36807 -0.00862542 -0.0356781 4.02121 0.398933 0.0004445 9.71748 1.45645 3.05588 4.84412 -3.22852 -3.65581 -83.688 -14.4135 64.3372 8.51613 4.97381e-013 -3.8147e-006 36.3293 0.0125487 -30.0235 10.1924 -1.66978e-013 -1.90735e-006 -18.8217 -8.47012 -28.5771 14.5949 -1.43856 0.585094 -31.104 -13.8356 -8.54183 14.4623 3.81471e-006 -5.68434e-014 14.1092 -12.9397 -10.2409 4.84412 -3.22856 3.65557 96.1288 -8.9745 -135.136 8.51613 -1.42109e-014 2.13163e-014 -36.3236 0.00103179 -30.0223 10.1924 -2.27374e-013 -5.72204e-006 20.1165 7.34158 -29.1725 14.4623 0 -7.10542e-015 -17.133 14.7728 -8.98019 14.5949 1.43853 0.585073 28.0683 15.5391 -7.24873 -3.83983 0.197577 -3.67059 -94.5466 -3.65193 172.696 3.92615 0 -1.5099e-014 -62.6037 -4.53931e-006 1.30227e-005 6.12319 -1.06582e-014 -2.22045e-015 75.9299 1.87695e-006 -9.48511e-006 9.94775 2.84219e-014 9.53675e-007 -60.7469 0.0314506 8.75079 0.881241 -0.110958 0.0158091 153.243 -4.5544 179.841 2.32138 -1.14442e-005 5.86198e-014 49.7443 2.70275e-006 -8.19409e-007 1.63292 5.68442e-014 7.10543e-015 -68.0046 2.61788e-006 7.75196e-006 1.72129 -2.66459e-015 -3.55271e-015 -1.1694e-007 1.07635e-005 -3.15004e-007 0.994697 0.967281 -1.09433 100.73 3.63897 27.2618 2.202 7.6295e-006 2.38418e-007 55.5995 -7.20446e-007 3.63899e-006 1.84925 0 -1.19209e-007 -35.3034 -1.4773e-005 -1.08261e-005 1.70976 7.62957e-006 3.57627e-007 1.24937e-006 9.84246e-007 5.30242e-007 1.37481 1.34026 -0.0713081 112.106 -1.0143 -2.49568 2.26122 1.5259e-005 2.38419e-007 31.1828 1.03277e-005 -5.29664e-006 2.22214 7.62951e-006 -2.38419e-007 -38.5073 -7.81874e-006 7.88527e-006 1.61866 7.62954e-006 1.04805e-013 -1.21172e-007 -2.78526e-008 6.95319e-007 1.40697 0.687974 0.883714 102.531 -7.69387 -31.052 2.26827 0 9.53674e-007 26.1292 -9.94573e-006 7.10395e-006 2.09769 0 -9.53674e-007 -61.0221 -9.24042e-006 1.19527e-005 1.53752 1.42112e-014 -9.53674e-007 4.53335e-007 1.005e-005 1.08527e-006 -4.20828 0.373328 3.22487 -95.8691 9.61218 -175.534 3.92615 -3.8147e-006 -9.53674e-007 -61.3184 -3.98642e-006 1.37236e-005 6.1232 -1.52588e-005 -9.53674e-007 96.9308 -4.37915e-008 -9.77862e-006 9.94775 2.28883e-005 -1.07914e-013 -23.5316 -7.7547 -3.48356 0.881245 -0.11097 -0.0158137 109.14 3.23718 -176.683 2.32138 -5.32913e-015 4.76837e-007 44.4425 7.03191e-006 2.49954e-006 1.63293 -3.81475e-006 -4.76837e-007 -43.5259 4.51092e-006 4.03542e-006 1.7213 4.76846e-007 -1.77636e-015 179.96 -0.000139458 0.000236086 0.994717 0.967261 1.09433 72.5544 10.6313 -25.4916 2.20201 3.81474e-006 1.95399e-013 63.0462 4.03705e-006 1.54906e-006 1.84922 -1.90738e-006 4.26325e-014 -35.3035 -7.57962e-006 5.62656e-006 1.70976 8.52668e-014 0 -179.96 -1.14837e-005 0.000180535 1.3748 1.34026 0.0713055 77.648 -0.578101 2.629 2.26122 -2.8422e-014 0 49.2911 6.24908e-007 -1.08765e-006 2.22213 7.10554e-015 4.76837e-007 -38.5073 -1.2298e-005 -1.02324e-005 1.61868 3.81477e-006 4.76837e-007 -179.96 -1.36475e-005 0.000181015 1.40699 0.687978 -0.883719 83.9474 -3.75322 31.6978 2.26829 3.62381e-013 3.81469e-006 49.9345 -5.66129e-006 -1.04535e-008 2.0977 1.90738e-006 7.62939e-006 -61.0221 -6.10962e-006 -2.3932e-006 1.53752 7.62958e-006 -3.81469e-006 -179.96 -2.9434e-005 0.000182472 4.9071 -0.00428009 -0.000375748 23.6734 4.28246 -3.35062 5.56426 -1.28356 0.000253681 2.58097 -5.88899 9.5048 2.79365 -0.00202942 0.000147581 13.1978 -1.76723 -9.57033 2.79272 1.52588e-005 -5.90639e-014 25.5317 -2.0492 3.75187 4.19087 0.0665818 1.12377e-010 -130.77 -0.0536805 -179.975 6.95116 1.52588e-005 3.37508e-014 9.69497e-007 9.96127e-006 -4.30302e-009 
0.970948 91.3033 0.013081 136.126 -90 151.518 0 0 0 -90.0236 6.17754 -89.9903 -5.52397 -0.332268 -7.54605e-017 -57.4921 -0.0324859 -179.941 6.48886 1.27898e-013 -0.00426466 -16.8541 2.89797e-010 7.77003e-008 7.08757 1.06582e-013 -0.00419608 -31.3282 0.0213125 -0.0630414 4.02121 0.398926 0.00095758 20.4183 2.02106 2.81363 4.84412 -3.22852 -3.65581 -84.1772 9.39043 97.8938 8.51613 1.27898e-013 -3.8147e-006 36.3362 0.0253283 -39.6198 10.1924 -4.61854e-013 -1.90735e-006 -8.19766 -16.762 -35.7507 14.5949 -1.43856 0.585094 -26.7975 -21.2454 -40.4836 14.4623 3.81471e-006 -2.0961e-013 17.8275 -20.3485 -42.4339 4.84412 -3.22856 3.65557 95.751 -5.86151 -113.648 8.51613 1.42109e-014 0 -36.3227 0.000398988 -39.6176 10.1924 -2.20269e-013 -5.72204e-006 11.6287 14.3427 -36.6738 14.4623 -1.42109e-014 7.10542e-015 -22.1624 23.9151 -40.7981 14.5949 1.43853 0.585073 22.3051 24.6689 -38.7319 -3.73184 0.906508 -3.67659 -97.9665 -4.28288 172.236 3.92615 1.42109e-014 -2.22045e-014 -53.5024 4.96348e-006 7.91473e-006 6.12319 1.77636e-014 -2.22045e-015 58.7059 5.00734e-006 -8.36334e-006 9.94775 0 9.53675e-007 -65.4801 -3.78514 8.87581 0.881242 -0.110958 0.0158091 153.243 -4.55442 179.841 2.32138 -1.14442e-005 2.45137e-013 18.723 1.68284e-006 1.6846e-007 1.63293 0 0 -48.849 5.73785e-006 6.06713e-006 1.7213 -7.10555e-015 1.77636e-015 -1.1694e-007 1.07635e-005 -3.15004e-007 0.994697 0.967281 -1.09433 100.73 3.63897 27.2618 2.202 7.6295e-006 2.38418e-007 55.5995 1.00169e-007 4.24229e-006 1.84925 -8.43786e-015 -1.19209e-007 -35.3034 -1.47617e-005 -1.07178e-005 1.70976 7.62957e-006 3.57627e-007 1.24937e-006 9.84246e-007 5.30242e-007 1.37481 1.34026 -0.0713081 112.106 -1.01429 -2.49567 2.26122 1.5259e-005 2.38419e-007 31.1828 9.21326e-006 -4.95559e-006 2.22214 7.62951e-006 -2.38418e-007 -38.5073 -6.43623e-006 8.60291e-006 1.61866 7.62954e-006 5.68434e-014 -1.21172e-007 -2.78526e-008 6.95319e-007 1.40697 0.687974 0.883714 102.531 -7.69388 -31.052 2.26827 -1.42111e-014 9.53674e-007 26.1292 -1.2791e-005 7.20283e-006 2.0977 -7.10554e-015 -9.53674e-007 -61.0221 -5.07653e-006 1.34655e-005 1.53752 0 -9.53674e-007 4.53335e-007 1.005e-005 1.08527e-006 -4.07072 1.1505 3.21831 -95.3248 10.6989 -176.788 3.92614 -3.8147e-006 -9.53674e-007 -50.1932 6.54275e-006 8.03524e-006 6.1232 -1.52588e-005 -9.53674e-007 71.2842 3.56432e-006 -9.25704e-006 9.94775 2.28883e-005 1.47438e-013 -27.9148 -4.59501 -7.55069 0.881246 -0.11097 -0.0158137 109.14 3.23721 -176.683 2.32138 4.44094e-015 4.76837e-007 44.4425 8.11306e-006 1.58296e-006 1.63293 -3.81475e-006 -4.76837e-007 -43.5259 3.08506e-006 3.85614e-006 1.7213 4.76846e-007 0 179.96 -0.000139462 0.000236085 0.994717 0.967261 1.09433 72.5544 10.6313 -25.4916 2.20201 3.81474e-006 3.0198e-013 63.0462 2.98235e-006 3.89212e-007 1.84922 -1.90738e-006 -1.77636e-014 -35.3034 -7.98383e-006 6.36383e-006 1.70976 2.45142e-013 0 -179.96 -1.14834e-005 0.000180536 1.3748 1.34026 0.0713055 77.648 -0.578102 2.62901 2.26122 -2.8422e-014 3.55271e-015 49.2911 1.71997e-008 -3.1208e-007 2.22213 -7.10553e-015 4.76837e-007 -38.5073 -1.08281e-005 -1.05276e-005 1.61868 3.81477e-006 4.76837e-007 -179.96 -1.36488e-005 0.000181013 1.40699 0.687977 -0.883719 83.9474 -3.75322 31.6978 2.26829 7.38973e-013 3.81469e-006 49.9345 -1.10927e-005 4.17084e-006 2.0977 1.90738e-006 7.62939e-006 -61.0221 -2.80782e-006 -1.26894e-006 1.53752 7.62958e-006 -3.81469e-006 -179.96 -2.94469e-005 0.00018247 4.9071 -0.00428009 -0.000375748 34.3831 3.58618 -4.00342 5.56426 -1.28356 0.000253685 7.13555 -5.17815 9.26582 2.79364 -0.00202942 0.000147581 6.45739 -0.623658 -10.4035 2.79272 1.52588e-005 -1.26565e-013 21.0422 -0.958888 6.12821 4.19087 0.0665818 -1.22347e-012 -139.911 -0.0340729 -179.988 6.95116 1.52588e-005 0 9.69497e-007 9.96127e-006 -4.30302e-009 
